<?xml version="1.0" encoding="utf-8"?>
<!-- Generator: Adobe Illustrator 24.2.3, SVG Export Plug-In . SVG Version: 6.00 Build 0)  -->
<svg version="1.1" xmlns="http://www.w3.org/2000/svg" xmlns:xlink="http://www.w3.org/1999/xlink" x="0px" y="0px"
	 viewBox="0 0 1034 251" style="enable-background:new 0 0 1034 251;" xml:space="preserve">
<style type="text/css">
	.st0{fill:#EAE8E9;}
	.st1{fill:#EA9423;}
	.st2{fill:#DD8924;}
	.st3{display:none;}
	.st4{display:inline;fill:#991135;}
	.st5{fill:#A0A0A0;}
	.st6{fill:#F4F4F4;}
	.st7{fill:#991135;}
	.st8{fill:#870B31;}
	.st9{display:inline;}
	.st10{display:inline;fill:#989FA8;}
	.st11{display:inline;fill:#AA224C;}
	.st12{fill:#EFEFEF;}
</style>
<g id="Layer_1">
	<g>
		<path class="st0" d="M369.44,181.24c-4.36-1.2-8.77-2.22-13.22-3.08V32.36h1.38c-0.35-5.54,0.04-11.09-0.71-16.68h-39.64
			c0.03,1.01-0.04,2.03-0.23,3.04c-0.29,1.58-0.61,3.16-0.95,4.74c-0.01,0.12-0.03,0.24-0.04,0.36c0.27,1.09,0.38,2.22,0.37,3.35
			c0.35,1.57,0.42,3.22,0.19,4.82c0.02,0.12,0.03,0.25,0.05,0.37h1.08v145.8c-4.45,0.69-8.86,1.76-13.22,3.21
			c-4.36,1.46-8.26,2.87-11.68,4.24v9.75h88.3v-9.75C377.7,183.89,373.81,182.43,369.44,181.24z"/>
		<ellipse class="st0" cx="337.31" cy="23.72" rx="26.97" ry="14.73"/>
		<path class="st0" d="M533.08,173.79c-1.37,2.91-3.55,5.86-6.55,8.86c-3,3-6.67,5.65-11.04,7.96c-4.36,2.31-9.41,4.2-15.14,5.65
			c-5.74,1.45-11.94,2.18-18.61,2.18c-10.61,0-20.02-1.58-28.24-4.75c-8.21-3.16-15.06-7.7-20.53-13.6
			c-5.48-5.9-9.63-12.96-12.45-21.18c-2.82-8.21-4.24-17.45-4.24-27.72c0-21.9,5.73-38.59,17.2-50.05
			c11.46-11.46,27.38-17.2,47.74-17.2c8.73,0,16.9,1.2,24.51,3.59c7.61,2.4,13.95,6.33,19,11.81c5.05,5.48,8.55,12.67,10.52,21.56
			c1.96,8.9,1.84,19.77-0.38,32.6h-78.8c0.17,13.52,3.63,24.3,10.4,32.34c6.76,8.05,16.73,12.06,29.9,12.06
			c5.65,0,11.51-0.85,17.58-2.57c6.07-1.71,10.82-3.93,14.25-6.67L533.08,173.79z M480.06,78.56c-3.4,0-6.42,0.6-9.06,1.8
			c-2.64,1.2-4.93,3.38-6.89,6.55c-1.96,3.17-3.53,7.44-4.72,12.83c-1.19,5.39-2.04,12.19-2.55,20.41h41.07
			c1.2-13.35,0.43-23.62-2.29-30.8C492.9,82.15,487.71,78.56,480.06,78.56z"/>
		<path class="st0" d="M624.97,195.35h-70.85v-9.75c5.65-2.74,11.29-4.8,16.94-6.18V23.38l-19.51-2.06v-9.75
			c2.22-1.03,5.3-2.05,9.24-3.08c3.93-1.03,8.17-1.92,12.71-2.69c4.53-0.77,9.07-1.45,13.6-2.05c4.53-0.6,8.6-1.07,12.19-1.41h8.73
			v177.11c5.65,1.37,11.29,3.43,16.94,6.17V195.35z"/>
		<path class="st0" d="M756.14,173.79c-1.37,2.91-3.55,5.86-6.55,8.86c-3,3-6.67,5.65-11.04,7.96c-4.36,2.31-9.41,4.2-15.14,5.65
			c-5.74,1.45-11.94,2.18-18.61,2.18c-10.61,0-20.02-1.58-28.24-4.75c-8.21-3.16-15.06-7.7-20.53-13.6
			c-5.48-5.9-9.63-12.96-12.45-21.18c-2.82-8.21-4.24-17.45-4.24-27.72c0-21.9,5.73-38.59,17.2-50.05
			c11.46-11.46,27.38-17.2,47.74-17.2c8.73,0,16.9,1.2,24.51,3.59c7.61,2.4,13.95,6.33,19,11.81c5.05,5.48,8.55,12.67,10.52,21.56
			c1.96,8.9,1.84,19.77-0.38,32.6h-78.8c0.17,13.52,3.63,24.3,10.4,32.34c6.76,8.05,16.73,12.06,29.9,12.06
			c5.65,0,11.51-0.85,17.58-2.57c6.07-1.71,10.82-3.93,14.25-6.67L756.14,173.79z M703.11,78.56c-3.4,0-6.42,0.6-9.06,1.8
			c-2.64,1.2-4.93,3.38-6.89,6.55c-1.96,3.17-3.53,7.44-4.72,12.83c-1.19,5.39-2.04,12.19-2.55,20.41h41.07
			c1.2-13.35,0.43-23.62-2.29-30.8C715.95,82.15,710.77,78.56,703.11,78.56z"/>
		<path class="st1" d="M851.62,2.32c7.01,0,13.3,0.64,18.87,1.92c5.56,1.28,9.79,2.53,12.71,3.72c-0.51,5.65-1.63,11.47-3.34,17.45
			c-1.71,5.99-3.25,10.95-4.62,14.89h-8.73l-11.29-24.39c-4.45,0-8.17,0.47-11.17,1.41c-3,0.94-5.39,2.78-7.19,5.52
			c-1.8,2.74-3.12,6.63-3.98,11.68c-0.86,5.05-1.28,11.6-1.28,19.64v12.83h27.21v16.69H831.6v95.76c8.9,1.03,17.11,3.07,24.64,6.14
			v9.75H777.7v-9.75c5.3-3.07,10.95-5.12,16.94-6.14V83.69h-19.51V73.41c5.99-3.87,12.49-6.77,19.51-8.71v-8.98
			c0-10.61,1.5-19.38,4.49-26.31c2.99-6.93,7.06-12.41,12.19-16.43c5.13-4.02,11.17-6.8,18.1-8.34S843.75,2.32,851.62,2.32z"/>
		<path class="st1" d="M894.46,82.94c-2.57-0.68-4.92-1.54-7.06-2.57c-2.14-1.03-4.32-2.23-6.55-3.6v-9.75h67.51v9.5
			c-3.59,2.41-8.47,4.55-14.63,6.44l25.93,64.62l4.36,16.48h0.51l4.11-16.73l20.02-64.36c-5.13-1.03-9.84-3.09-14.12-6.18v-9.75
			h49.54v9.75c-3.59,2.4-8.47,4.46-14.63,6.17l-41.84,112.42c-4.11,10.95-8.21,19.89-12.32,26.82c-4.11,6.93-8.21,12.45-12.32,16.56
			c-4.11,4.11-8.21,6.97-12.32,8.6c-4.11,1.62-8.21,2.7-12.32,3.21c-1.71-1.54-3.25-3.47-4.62-5.78c-1.37-2.31-2.57-4.79-3.59-7.44
			c-1.03-2.66-1.88-5.35-2.57-8.09c-0.69-2.74-1.12-5.31-1.28-7.7l3.34-6.16h31.32c1.54-2.4,2.86-4.96,3.98-7.7
			c1.11-2.74,2.44-6.85,3.98-12.32L894.46,82.94z"/>
	</g>
	<g>
		<path class="st0" d="M418.73,27.17c0,0-1.32-1.45-1.76-3.24c-0.18-0.73-0.6-1.37-1.26-1.74c-6.03-3.33-35.9-18.58-75.51-17.71
			c-39.62-0.87-69.48,14.38-75.51,17.71c-0.66,0.36-1.08,1.01-1.26,1.74c-0.44,1.79-1.76,3.24-1.76,3.24
			c-5.5,9.56-3.62,30.52-3.62,30.52c10.95-13.52,28.18-20.19,35.91-22.07c0.79-0.73,1.23-1.32,1.16-1.7
			c-0.64-3.39,4.02-6.77,8.68-7.83c4.66-1.06,36.41,1.09,36.41,1.09s31.75-2.15,36.41-1.09c4.66,1.06,9.31,4.45,8.68,7.83
			c-0.07,0.38,0.37,0.97,1.16,1.7c7.72,1.88,24.99,8.43,35.93,21.95C422.37,57.56,424.23,36.72,418.73,27.17z"/>
		<path class="st0" d="M296.77,34.98c-4.93,0.97-25.58,5.8-38.29,20.8c-0.44,0.53-0.6,1.23-0.45,1.9c0.41,1.8,1.68,5.48,5.5,8.96
			c0.63,0.57,1.52,0.75,2.3,0.43c5.53-2.24,28.29-11.76,36.86-20.19c0.45-0.44,0.67-1.07,0.61-1.7c-0.18-1.9-1-6.1-4.66-9.68
			C298.15,35.03,297.44,34.85,296.77,34.98z"/>
		<path class="st0" d="M383.54,34.97c4.8,0.94,25.64,5.75,38.4,20.87c0.4,0.48,0.57,1.12,0.43,1.73c-0.38,1.76-1.64,5.56-5.59,9.14
			c-0.59,0.53-1.42,0.71-2.16,0.41c-5.39-2.18-28.4-11.79-36.98-20.26c-0.42-0.42-0.63-1-0.57-1.6c0.17-1.88,0.97-6.16,4.71-9.79
			C382.24,35.02,382.9,34.85,383.54,34.97z"/>
	</g>
</g>
<g id="Layer_2">
	<g>
		<g>
			<g>
				<circle class="st2" cx="121.26" cy="105.06" r="101.86"/>
				<g class="st3">
					<path class="st4" d="M204.62-10.91C166.7-26,117.65-24.88,117.65-24.88S68.6-26,30.68-10.91c0,0-25.86,9.91-24.11,31.84l0.01,0
						c4.55-3.75,15.47-7.3,28.49-8.88c14.06-1.7,26.28-0.58,30.93,2.47l0.02,0c0,0-2.15-20.99,51.62-20.32
						c53.77-0.66,51.62,20.32,51.62,20.32l0.02,0c4.65-3.04,16.87-4.17,30.93-2.47c13.03,1.58,23.94,5.13,28.49,8.88l0.01,0
						C230.48-1,204.62-10.91,204.62-10.91z"/>
				</g>
				<g>
					<g>
						
							<ellipse transform="matrix(0.2322 -0.9727 0.9727 0.2322 -11.2896 199.3148)" class="st5" cx="120.6" cy="106.81" rx="86.52" ry="86.52"/>
					</g>
				</g>
				<g>
					<g>
						
							<ellipse transform="matrix(0.2321 -0.9727 0.9727 0.2321 -11.28 199.3286)" class="st6" cx="120.6" cy="106.81" rx="82.96" ry="82.96"/>
					</g>
					<g>
						<g>
							<path class="st7" d="M175.75,67.42c-3.28,7-11.61,10.02-18.61,6.75c-7-3.28-10.02-11.61-6.75-18.61
								c3.28-7,11.61-10.02,18.61-6.75C176.01,52.09,179.03,60.42,175.75,67.42z"/>
						</g>
						<g>
							<path class="st7" d="M141.99,51.62c-3.28,7-11.61,10.02-18.61,6.75c-7-3.28-10.02-11.61-6.75-18.61
								c3.28-7,11.61-10.02,18.61-6.75C142.24,36.29,145.26,44.62,141.99,51.62z"/>
						</g>
						<g>
							<path class="st7" d="M105.7,56.72c-3.28,7-11.61,10.02-18.61,6.75c-7-3.28-10.02-11.61-6.75-18.61
								c3.28-7,11.61-10.02,18.61-6.75C105.95,41.38,108.97,49.72,105.7,56.72z"/>
						</g>
						<g>
							<path class="st7" d="M80.02,80.57c-3.28,7-11.61,10.02-18.61,6.75c-7-3.28-10.02-11.61-6.75-18.61
								c3.28-7,11.61-10.02,18.61-6.75C80.28,65.24,83.3,73.57,80.02,80.57z"/>
						</g>
						<g>
							<path class="st7" d="M71.44,116.16c-3.28,7-11.61,10.02-18.61,6.75c-7-3.28-10.02-11.61-6.75-18.61
								c3.28-7,11.61-10.02,18.61-6.75C71.69,100.83,74.71,109.16,71.44,116.16z"/>
						</g>
						<g>
							<path class="st7" d="M83.71,149.6c-3.28,7-11.61,10.02-18.61,6.75c-7-3.28-10.02-11.61-6.75-18.61
								c3.28-7,11.61-10.02,18.61-6.75C83.97,134.26,86.99,142.6,83.71,149.6z"/>
						</g>
						<g>
							<path class="st7" d="M111.76,171.17c-3.28,7-11.61,10.02-18.61,6.75c-7-3.28-10.02-11.61-6.75-18.61
								c3.28-7,11.61-10.02,18.61-6.75C112.02,155.84,115.04,164.17,111.76,171.17z"/>
						</g>
						<g>
							<path class="st7" d="M146.66,173.86c-3.28,7-11.61,10.02-18.61,6.75c-7-3.28-10.02-11.61-6.75-18.61
								c3.28-7,11.61-10.02,18.61-6.75C146.91,158.52,149.93,166.85,146.66,173.86z"/>
						</g>
						<g>
							<path class="st7" d="M177.86,157.25c-3.28,7-11.61,10.02-18.61,6.75c-7-3.28-10.02-11.61-6.75-18.61
								c3.28-7,11.61-10.02,18.61-6.75C178.12,141.92,181.14,150.25,177.86,157.25z"/>
						</g>
					</g>
					<g>
						<path class="st7" d="M207.12,117.71c0,0-0.89,12.46-5.78,21.8c0,0-24.91,2.67-32.92-13.79c0,0-0.44-9.34,9.34-1.33
							C187.55,132.39,207.12,117.71,207.12,117.71z"/>
					</g>
					<g>
						
							<ellipse transform="matrix(0.1747 -0.9846 0.9846 0.1747 -5.6327 206.8965)" class="st8" cx="120.6" cy="106.81" rx="42.47" ry="42.47"/>
					</g>
					<g>
						
							<ellipse transform="matrix(0.2308 -0.973 0.973 0.2308 -11.1574 199.503)" class="st0" cx="120.6" cy="106.81" rx="37.42" ry="37.42"/>
					</g>
				</g>
				<g class="st3">
					<path class="st4" d="M155.35-24.87c-3.52,0-6.29-1.01-10.82,15.85C140,7.83,95.3,7.83,90.77-9.02s-7.29-15.85-10.82-15.85
						c-3.52,0-10.31,15.34-4.02,29.18c3.67,8.06,7.37,11.26,9.82,12.52c1.8,0.92,2.87,2.84,2.87,4.86v0.99h29.04h29.04v-0.99
						c0-2.02,1.07-3.93,2.87-4.86c2.45-1.26,6.15-4.45,9.82-12.52C165.66-9.53,158.87-24.87,155.35-24.87z"/>
				</g>
				<g class="st3">
					<path class="st4" d="M69.41,30.49c0.6,4.95-13.17,10.68-30.76,12.81c-17.59,2.13-32.33-0.16-32.93-5.1
						c-0.6-4.95,13.17-10.68,30.76-12.81S68.81,25.55,69.41,30.49z"/>
				</g>
				<g class="st3">
					<path class="st4" d="M36.48,25.39c17.59-2.13,32.33,0.16,32.93,5.1l-1.4-13.35c-0.6-4.95-15.34-7.23-32.93-5.1
						C17.49,14.17,3.72,19.91,4.32,24.86l1.4,13.35C5.12,33.25,18.9,27.52,36.48,25.39z"/>
				</g>
				<g class="st3">
					<path class="st4" d="M165.89,30.49c-0.6,4.95,13.17,10.68,30.76,12.81c17.59,2.13,32.33-0.16,32.93-5.1
						c0.6-4.95-13.17-10.68-30.76-12.81S166.49,25.55,165.89,30.49z"/>
				</g>
				<g class="st3">
					<path class="st4" d="M198.82,25.39c-17.59-2.13-32.33,0.16-32.93,5.1l1.4-13.35c0.6-4.95,15.34-7.23,32.93-5.1
						c17.59,2.13,31.36,7.86,30.76,12.81l-1.4,13.35C230.18,33.25,216.41,27.52,198.82,25.39z"/>
				</g>
				<g class="st3">
					<g class="st9">
						<g>
							<path class="st7" d="M186.15,27.61c3.92,0,8.06,0.26,12.3,0.77c18.37,2.22,27.36,7.54,28.09,9.45
								c-0.78,1.08-5.9,3.25-17.23,3.25c-3.92,0-8.06-0.26-12.3-0.77c-18.37-2.22-27.36-7.54-28.09-9.45
								C169.69,29.78,174.82,27.61,186.15,27.61L186.15,27.61z M186.15,24.59c-11.5,0-19.82,2.21-20.26,5.9
								c-0.6,4.95,13.17,10.68,30.76,12.81c4.47,0.54,8.75,0.8,12.67,0.8c11.5,0,19.82-2.21,20.26-5.9
								c0.6-4.95-13.17-10.68-30.76-12.81C194.35,24.85,190.07,24.59,186.15,24.59L186.15,24.59z"/>
						</g>
					</g>
				</g>
				<g class="st3">
					<g class="st9">
						<g>
							<path class="st7" d="M49.15,27.61c11.33,0,16.46,2.16,17.23,3.25c-0.73,1.9-9.73,7.22-28.09,9.45
								c-4.25,0.51-8.39,0.77-12.3,0.77c-11.33,0-16.46-2.16-17.23-3.25c0.73-1.9,9.73-7.22,28.09-9.45
								C41.09,27.87,45.23,27.61,49.15,27.61L49.15,27.61z M49.15,24.59c-3.91,0-8.2,0.26-12.67,0.8
								C18.9,27.52,5.12,33.25,5.72,38.2c0.45,3.69,8.76,5.9,20.26,5.9c3.91,0,8.2-0.26,12.67-0.8
								c17.59-2.13,31.36-7.86,30.76-12.81C68.97,26.8,60.65,24.59,49.15,24.59L49.15,24.59z"/>
						</g>
					</g>
				</g>
				<g class="st3">
					<path class="st10" d="M83.48-19.02c0,0-0.28-3.3-1.98-3.49c-1.7-0.19-4.06,0.28-5,6.51c-0.94,6.23-1.13,16.41,3.49,23.77
						c4.62,7.36,9.72,8.49,11.7,7.92c1.98-0.57-4.53-8.96-6.32-15.38C83.58-6.1,83.48-19.02,83.48-19.02z"/>
				</g>
				<g class="st3">
					<path class="st10" d="M147.82-12.51c0,0-1.6,17.07-19.24,17.17c-17.64,0.09-11.04,3.58-8.21,4.43
						c2.83,0.85,19.53,4.34,26.98-3.49c7.45-7.83,5.75-23.11,5.47-24.53C152.53-20.34,149.23-20.15,147.82-12.51z"/>
				</g>
				<g class="st3">
					<path class="st10" d="M55.93,11.68c-5.71-0.65-12.99-0.59-20.85,0.36C17.49,14.17,3.72,19.91,4.32,24.86l1.4,13.35
						c-0.32-2.64,3.47-5.5,9.73-7.92C25.39,21.37,43.39,15.17,55.93,11.68z"/>
				</g>
				<g class="st3">
					<path class="st11" d="M36.85,28.39c-18.37,2.22-27.36,7.54-28.09,9.45c0.78,1.08,5.9,3.25,17.23,3.25
						c0.27,0,0.55-0.01,0.82-0.01c0.78-6.06,8.22-10.43,14.74-13.14C40,28.05,38.43,28.2,36.85,28.39z"/>
				</g>
				<g class="st3">
					<path class="st11" d="M198.46,28.39c-4.25-0.51-8.39-0.77-12.3-0.77c-11.33,0-16.46,2.16-17.23,3.25
						c0.63,1.63,7.35,5.77,20.83,8.32c6.78-3.26,17.95-5.19,28.35-6.33C213.5,31.13,207.01,29.42,198.46,28.39z"/>
				</g>
				<g class="st3">
					<path class="st10" d="M200.22,12.04c-17.59-2.13-32.33,0.16-32.93,5.1l-1.4,13.35c0.55-4.52,12.93-6.81,28.48-5.54
						c4.69-5.3,11.61-8.68,17.94-10.75C208.62,13.31,204.54,12.57,200.22,12.04z"/>
				</g>
				<g class="st3">
					<path class="st10" d="M92.63,48.52c0,0-17.01,8.62-18.01,21.88c-1,13.27,2.77-5.8,23.02-12.34
						c19.01-6.14,28.49-1.43,31.51-1.24C132.16,57.01,117.43,38.71,92.63,48.52z"/>
				</g>
				<g class="st3">
					<path class="st10" d="M143.68,163.79c-13.33,3.59,17.65,6.25,26.77,0.25c8.61-5.66,7.37-38.36,5.73-43.52
						C174.55,115.37,161.9,158.88,143.68,163.79z"/>
				</g>
				<g class="st3">
					<path class="st10" d="M67.72-17.07c0,0-32.92,6.04-42.57,13.71c-9.65,7.67-8.64,7.92-4.62,8.18c4.02,0.25,20.4-0.53,32.21-9.32
						S75.8-18.74,67.72-17.07z"/>
				</g>
				<g class="st3">
					<path class="st10" d="M193.57-10.46c0,0-15.91-6.15-22.43-7.22c-6.52-1.07-3.4,7.77-3.24,12.81s15.83,5.31,25.47,5.98
						c9.64,0.67,16.36,5.06,17.42,1.55C211.86-0.84,199.08-8.4,193.57-10.46z"/>
				</g>
			</g>
			<path class="st12" d="M137.16,97.18c-5.07-5.81-12.51-9.49-20.82-9.49c-15.27,0-27.65,12.38-27.65,27.65
				c0,9.11,4.42,17.16,11.22,22.2C110.33,116.42,124.21,104.21,137.16,97.18z"/>
		</g>
	</g>
</g>
</svg>
