<?xml version="1.0" encoding="utf-8"?>
<!-- Generator: Adobe Illustrator 24.2.3, SVG Export Plug-In . SVG Version: 6.00 Build 0)  -->
<svg version="1.1" id="Layer_1" xmlns="http://www.w3.org/2000/svg" xmlns:xlink="http://www.w3.org/1999/xlink" x="0px" y="0px"
	 viewBox="0 0 776 249" style="enable-background:new 0 0 776 249;" xml:space="preserve">
<style type="text/css">
	.st0{fill:#EAE8E9;}
	.st1{fill:#EA9423;}
</style>
<g>
	<path class="st0" d="M111.44,179.24c-4.36-1.2-8.77-2.22-13.22-3.08V30.36h1.38c-0.35-5.54,0.04-11.09-0.71-16.68H59.25
		c0.03,1.01-0.04,2.03-0.23,3.04c-0.29,1.58-0.61,3.16-0.95,4.74c-0.01,0.12-0.03,0.24-0.04,0.36c0.27,1.09,0.38,2.22,0.37,3.35
		c0.35,1.57,0.42,3.22,0.19,4.82c0.02,0.12,0.03,0.25,0.05,0.37h1.08v145.8c-4.45,0.69-8.86,1.76-13.22,3.21
		c-4.36,1.46-8.26,2.87-11.68,4.24v9.75h88.3v-9.75C119.7,181.89,115.81,180.43,111.44,179.24z"/>
	<ellipse class="st0" cx="79.31" cy="21.72" rx="26.97" ry="14.73"/>
	<path class="st0" d="M275.08,171.79c-1.37,2.91-3.55,5.86-6.55,8.86c-3,3-6.67,5.65-11.04,7.96c-4.36,2.31-9.41,4.2-15.14,5.65
		c-5.74,1.45-11.94,2.18-18.61,2.18c-10.61,0-20.02-1.58-28.24-4.75c-8.21-3.16-15.06-7.7-20.53-13.6
		c-5.48-5.9-9.63-12.96-12.45-21.18c-2.82-8.21-4.24-17.45-4.24-27.72c0-21.9,5.73-38.59,17.2-50.05
		c11.46-11.46,27.38-17.2,47.74-17.2c8.73,0,16.9,1.2,24.51,3.59c7.61,2.4,13.95,6.33,19,11.81c5.05,5.48,8.55,12.67,10.52,21.56
		c1.96,8.9,1.84,19.77-0.38,32.6h-78.8c0.17,13.52,3.63,24.3,10.4,32.34c6.76,8.05,16.73,12.06,29.9,12.06
		c5.65,0,11.51-0.85,17.58-2.57c6.07-1.71,10.82-3.93,14.25-6.67L275.08,171.79z M222.06,76.56c-3.4,0-6.42,0.6-9.06,1.8
		c-2.64,1.2-4.93,3.38-6.89,6.55c-1.96,3.17-3.53,7.44-4.72,12.83c-1.19,5.39-2.04,12.19-2.55,20.41h41.07
		c1.2-13.35,0.43-23.62-2.29-30.8C234.9,80.15,229.71,76.56,222.06,76.56z"/>
	<path class="st0" d="M366.97,193.35h-70.85v-9.75c5.65-2.74,11.29-4.8,16.94-6.18V21.38l-19.51-2.06V9.56
		c2.22-1.03,5.3-2.05,9.24-3.08c3.93-1.03,8.17-1.92,12.71-2.69c4.53-0.77,9.07-1.45,13.6-2.05c4.53-0.6,8.6-1.07,12.19-1.41h8.73
		v177.11c5.65,1.37,11.29,3.43,16.94,6.17V193.35z"/>
	<path class="st0" d="M498.14,171.79c-1.37,2.91-3.55,5.86-6.55,8.86c-3,3-6.67,5.65-11.04,7.96c-4.36,2.31-9.41,4.2-15.14,5.65
		c-5.74,1.45-11.94,2.18-18.61,2.18c-10.61,0-20.02-1.58-28.24-4.75c-8.21-3.16-15.06-7.7-20.53-13.6
		c-5.48-5.9-9.63-12.96-12.45-21.18c-2.82-8.21-4.24-17.45-4.24-27.72c0-21.9,5.73-38.59,17.2-50.05
		c11.46-11.46,27.38-17.2,47.74-17.2c8.73,0,16.9,1.2,24.51,3.59c7.61,2.4,13.95,6.33,19,11.81c5.05,5.48,8.55,12.67,10.52,21.56
		c1.96,8.9,1.84,19.77-0.38,32.6h-78.8c0.17,13.52,3.63,24.3,10.4,32.34c6.76,8.05,16.73,12.06,29.9,12.06
		c5.65,0,11.51-0.85,17.58-2.57c6.07-1.71,10.82-3.93,14.25-6.67L498.14,171.79z M445.11,76.56c-3.4,0-6.42,0.6-9.06,1.8
		c-2.64,1.2-4.93,3.38-6.89,6.55c-1.96,3.17-3.53,7.44-4.72,12.83c-1.19,5.39-2.04,12.19-2.55,20.41h41.07
		c1.2-13.35,0.43-23.62-2.29-30.8C457.95,80.15,452.77,76.56,445.11,76.56z"/>
	<path class="st1" d="M593.62,0.32c7.01,0,13.3,0.64,18.87,1.92c5.56,1.28,9.79,2.53,12.71,3.72c-0.51,5.65-1.63,11.47-3.34,17.45
		c-1.71,5.99-3.25,10.95-4.62,14.89h-8.73l-11.29-24.39c-4.45,0-8.17,0.47-11.17,1.41c-3,0.94-5.39,2.78-7.19,5.52
		c-1.8,2.74-3.12,6.63-3.98,11.68c-0.86,5.05-1.28,11.6-1.28,19.64v12.83h27.21v16.69H573.6v95.76c8.9,1.03,17.11,3.07,24.64,6.14
		v9.75H519.7v-9.75c5.3-3.07,10.95-5.12,16.94-6.14V81.69h-19.51V71.41c5.99-3.87,12.49-6.77,19.51-8.71v-8.98
		c0-10.61,1.5-19.38,4.49-26.31c2.99-6.93,7.06-12.41,12.19-16.43c5.13-4.02,11.17-6.8,18.1-8.34S585.75,0.32,593.62,0.32z"/>
	<path class="st1" d="M636.46,80.94c-2.57-0.68-4.92-1.54-7.06-2.57c-2.14-1.03-4.32-2.23-6.55-3.6v-9.75h67.51v9.5
		c-3.59,2.41-8.47,4.55-14.63,6.44l25.93,64.62l4.36,16.48h0.51l4.11-16.73l20.02-64.36c-5.13-1.03-9.84-3.09-14.12-6.18v-9.75
		h49.54v9.75c-3.59,2.4-8.47,4.46-14.63,6.17l-41.84,112.42c-4.11,10.95-8.21,19.89-12.32,26.82c-4.11,6.93-8.21,12.45-12.32,16.56
		c-4.11,4.11-8.21,6.97-12.32,8.6c-4.11,1.62-8.21,2.7-12.32,3.21c-1.71-1.54-3.25-3.47-4.62-5.78c-1.37-2.31-2.57-4.79-3.59-7.44
		c-1.03-2.66-1.88-5.35-2.57-8.09c-0.69-2.74-1.12-5.31-1.28-7.7l3.34-6.16h31.32c1.54-2.4,2.86-4.96,3.98-7.7
		c1.11-2.74,2.44-6.85,3.98-12.32L636.46,80.94z"/>
</g>
<g>
	<path class="st0" d="M160.73,25.17c0,0-1.32-1.45-1.76-3.24c-0.18-0.73-0.6-1.37-1.26-1.74c-6.03-3.33-35.9-18.58-75.51-17.71
		C42.57,1.62,12.71,16.86,6.67,20.19c-0.66,0.36-1.08,1.01-1.26,1.74c-0.44,1.79-1.76,3.24-1.76,3.24
		c-5.5,9.56-3.62,30.52-3.62,30.52c10.95-13.52,28.18-20.19,35.91-22.07c0.79-0.73,1.23-1.32,1.16-1.7
		c-0.64-3.39,4.02-6.77,8.68-7.83c4.66-1.06,36.41,1.09,36.41,1.09s31.75-2.15,36.41-1.09c4.66,1.06,9.31,4.45,8.68,7.83
		c-0.07,0.38,0.37,0.97,1.16,1.7c7.72,1.88,24.99,8.43,35.93,21.95C164.37,55.56,166.23,34.72,160.73,25.17z"/>
	<path class="st0" d="M38.77,32.98c-4.93,0.97-25.58,5.8-38.29,20.8c-0.44,0.53-0.6,1.23-0.45,1.9c0.41,1.8,1.68,5.48,5.5,8.96
		c0.63,0.57,1.52,0.75,2.3,0.43c5.53-2.24,28.29-11.76,36.86-20.19c0.45-0.44,0.67-1.07,0.61-1.7c-0.18-1.9-1-6.1-4.66-9.68
		C40.15,33.03,39.44,32.85,38.77,32.98z"/>
	<path class="st0" d="M125.54,32.97c4.8,0.94,25.64,5.75,38.4,20.87c0.4,0.48,0.57,1.12,0.43,1.73c-0.38,1.76-1.64,5.56-5.59,9.14
		c-0.59,0.53-1.42,0.71-2.16,0.41c-5.39-2.18-28.4-11.79-36.98-20.26c-0.42-0.42-0.63-1-0.57-1.6c0.17-1.88,0.97-6.16,4.71-9.79
		C124.24,33.02,124.9,32.85,125.54,32.97z"/>
</g>
</svg>
