<?xml version="1.0" encoding="utf-8"?>
<!-- Generator: Adobe Illustrator 24.2.3, SVG Export Plug-In . SVG Version: 6.00 Build 0)  -->
<svg version="1.1" id="Layer_1" xmlns="http://www.w3.org/2000/svg" xmlns:xlink="http://www.w3.org/1999/xlink" x="0px" y="0px"
	 viewBox="0 0 1031 315" style="enable-background:new 0 0 1031 315;" xml:space="preserve">
<style type="text/css">
	.st0{fill:#F2F2F2;}
	.st1{fill:#991135;}
	.st2{fill:#930F38;}
	.st3{display:none;}
	.st4{display:inline;fill:#991135;}
	.st5{fill:#A0A0A0;}
	.st6{fill:#F4F4F4;}
	.st7{fill:#EA9423;}
	.st8{fill:#870B31;}
	.st9{display:inline;}
	.st10{display:inline;fill:#989FA8;}
	.st11{display:inline;fill:#AA224C;}
	.st12{fill:#AA224C;}
</style>
<path class="st0" d="M982.63,314.93H47.61c-26.42,0-48.03-21.61-48.03-48.03V47.96c0-26.42,21.61-48.03,48.03-48.03h935.02
	c26.42,0,48.03,21.61,48.03,48.03v218.94C1030.66,293.32,1009.05,314.93,982.63,314.93z"/>
<g>
	<path class="st1" d="M491.66,87.65c0,0-1.32-1.45-1.76-3.24c-0.18-0.73-0.6-1.37-1.26-1.74c-6.03-3.33-35.9-18.58-75.51-17.71
		c-39.62-0.87-69.48,14.38-75.51,17.71c-0.66,0.36-1.08,1.01-1.26,1.74c-0.44,1.79-1.76,3.24-1.76,3.24
		c-5.5,9.56-3.62,30.52-3.62,30.52c10.95-13.52,28.18-20.19,35.91-22.07c0.79-0.73,1.23-1.32,1.16-1.7
		c-0.64-3.39,4.02-6.77,8.68-7.83c4.66-1.06,36.41,1.09,36.41,1.09s31.75-2.15,36.41-1.09c4.66,1.06,9.31,4.45,8.68,7.83
		c-0.07,0.38,0.37,0.97,1.16,1.7c7.72,1.88,24.99,8.43,35.93,21.95C495.31,118.05,497.16,97.21,491.66,87.65z"/>
	<path class="st2" d="M369.71,95.47c-4.93,0.97-25.58,5.8-38.29,20.8c-0.44,0.53-0.6,1.23-0.45,1.9c0.41,1.8,1.68,5.48,5.5,8.96
		c0.63,0.57,1.52,0.75,2.3,0.43c5.53-2.24,28.29-11.76,36.86-20.19c0.45-0.44,0.67-1.07,0.61-1.7c-0.18-1.9-1-6.1-4.66-9.68
		C371.09,95.52,370.38,95.33,369.71,95.47z"/>
	<path class="st2" d="M456.47,95.45c4.8,0.94,25.64,5.75,38.4,20.87c0.4,0.48,0.57,1.12,0.43,1.73c-0.38,1.76-1.64,5.56-5.59,9.14
		c-0.59,0.53-1.42,0.71-2.16,0.41c-5.39-2.18-28.4-11.79-36.98-20.26c-0.42-0.42-0.63-1-0.57-1.6c0.17-1.88,0.97-6.16,4.71-9.79
		C455.18,95.5,455.84,95.33,456.47,95.45z"/>
</g>
<g>
	<g>
		<g>
			<g class="st3">
				<path class="st4" d="M232.41,43.44c-37.62-14.97-86.28-13.86-86.28-13.86s-48.66-1.11-86.28,13.86c0,0-25.66,9.83-23.92,31.58
					l0.01,0c4.52-3.72,15.35-7.25,28.27-8.81c13.95-1.69,26.07-0.57,30.69,2.45l0.02,0c0,0-2.13-20.82,51.21-20.16
					c53.35-0.66,51.21,20.16,51.21,20.16l0.02,0c4.61-3.02,16.74-4.13,30.69-2.45c12.92,1.56,23.75,5.09,28.27,8.81l0.01,0
					C258.07,53.26,232.41,43.44,232.41,43.44z"/>
			</g>
			<g>
				<path class="st1" d="M218.29,59.37H73.96c-8.44,0-15.29,6.84-15.29,15.29v152.07c0,17.54,14.22,31.75,31.75,31.75h111.4
					c17.54,0,31.75-14.22,31.75-31.75V74.66C233.58,66.22,226.74,59.37,218.29,59.37z"/>
			</g>
			<g>
				<path class="st1" d="M221.21,88.1c-9.26-3.19-17.58-7.83-19.81-14.48c-0.97-2.88-3.48-4.96-6.53-4.96l-97.49-0.01
					c-3.04,0-5.56,2.08-6.52,4.96c-2.23,6.65-10.55,11.3-19.81,14.49c-2.74,0.94-4.55,3.55-4.55,6.45v132.19
					c0,13.21,10.71,23.93,23.93,23.93h111.4c13.21,0,23.93-10.71,23.93-23.93V94.54C225.75,91.65,223.94,89.04,221.21,88.1z"/>
			</g>
			<g>
				<g>
					
						<ellipse transform="matrix(0.2322 -0.9727 0.9727 0.2322 -52.8826 270.3857)" class="st5" cx="144.82" cy="168.69" rx="63.44" ry="63.44"/>
				</g>
			</g>
			<g>
				<g>
					
						<ellipse transform="matrix(0.2321 -0.9727 0.9727 0.2321 -52.872 270.4063)" class="st6" cx="144.82" cy="168.69" rx="60.83" ry="60.83"/>
				</g>
				<g>
					<g>
						<path class="st7" d="M185.26,139.81c-2.4,5.13-8.51,7.35-13.65,4.95c-5.13-2.4-7.35-8.51-4.95-13.65
							c2.4-5.13,8.51-7.35,13.65-4.95C185.45,128.57,187.66,134.68,185.26,139.81z"/>
					</g>
					<g>
						<path class="st7" d="M160.5,128.23c-2.4,5.13-8.51,7.35-13.65,4.95c-5.13-2.4-7.35-8.51-4.95-13.65
							c2.4-5.13,8.51-7.35,13.65-4.95C160.69,116.98,162.9,123.09,160.5,128.23z"/>
					</g>
					<g>
						<path class="st7" d="M133.89,131.96c-2.4,5.13-8.51,7.35-13.65,4.95c-5.13-2.4-7.35-8.51-4.95-13.65
							c2.4-5.13,8.51-7.35,13.65-4.95C134.08,120.72,136.3,126.83,133.89,131.96z"/>
					</g>
					<g>
						<path class="st7" d="M115.07,149.45c-2.4,5.13-8.51,7.35-13.65,4.95c-5.13-2.4-7.35-8.51-4.95-13.65
							c2.4-5.13,8.51-7.35,13.65-4.95C115.25,138.21,117.47,144.32,115.07,149.45z"/>
					</g>
					<g>
						<path class="st7" d="M108.77,175.55c-2.4,5.13-8.51,7.35-13.65,4.95c-5.13-2.4-7.35-8.51-4.95-13.65
							c2.4-5.13,8.51-7.35,13.65-4.95C108.96,164.3,111.18,170.41,108.77,175.55z"/>
					</g>
					<g>
						<path class="st7" d="M117.78,200.06c-2.4,5.13-8.51,7.35-13.65,4.95c-5.13-2.4-7.35-8.51-4.95-13.65
							c2.4-5.13,8.51-7.35,13.65-4.95C117.96,188.82,120.18,194.93,117.78,200.06z"/>
					</g>
					<g>
						<path class="st7" d="M138.34,215.88c-2.4,5.13-8.51,7.35-13.65,4.95c-5.13-2.4-7.35-8.51-4.95-13.65
							c2.4-5.13,8.51-7.35,13.65-4.95C138.53,204.64,140.74,210.75,138.34,215.88z"/>
					</g>
					<g>
						<path class="st7" d="M163.93,217.85c-2.4,5.13-8.51,7.35-13.65,4.95c-5.13-2.4-7.35-8.51-4.95-13.65
							c2.4-5.13,8.51-7.35,13.65-4.95C164.11,206.6,166.33,212.71,163.93,217.85z"/>
					</g>
					<g>
						<path class="st7" d="M186.81,205.67c-2.4,5.13-8.51,7.35-13.65,4.95c-5.13-2.4-7.35-8.51-4.95-13.65
							c2.4-5.13,8.51-7.35,13.65-4.95C186.99,194.43,189.21,200.54,186.81,205.67z"/>
					</g>
				</g>
				<g>
					<path class="st1" d="M208.26,176.68c0,0-0.65,9.13-4.24,15.98c0,0-18.26,1.96-24.13-10.11c0,0-0.33-6.85,6.85-0.98
						C193.91,187.44,208.26,176.68,208.26,176.68z"/>
				</g>
				<g>
					
						<ellipse transform="matrix(0.1747 -0.9846 0.9846 0.1747 -46.5729 281.8143)" class="st8" cx="144.82" cy="168.69" rx="31.14" ry="31.14"/>
				</g>
				<g>
					
						<ellipse transform="matrix(0.2308 -0.973 0.973 0.2308 -52.7373 270.6678)" class="st1" cx="144.82" cy="168.69" rx="27.44" ry="27.44"/>
				</g>
			</g>
			<g class="st3">
				<path class="st4" d="M183.53,29.58c-3.49,0-6.24-1-10.73,15.72c-4.49,16.72-48.84,16.72-53.34,0
					c-4.49-16.72-7.24-15.72-10.73-15.72c-3.49,0-10.23,15.22-3.99,28.95c3.64,8,7.31,11.17,9.74,12.42
					c1.78,0.92,2.84,2.81,2.84,4.82v0.98h28.81h28.81v-0.98c0-2,1.06-3.9,2.84-4.82c2.43-1.25,6.1-4.42,9.74-12.42
					C193.76,44.81,187.02,29.58,183.53,29.58z"/>
			</g>
			<g class="st3">
				<path class="st4" d="M98.27,84.51c0.59,4.91-13.07,10.6-30.52,12.71c-17.45,2.11-32.07-0.15-32.67-5.06
					c-0.59-4.91,13.07-10.6,30.52-12.71C83.05,77.34,97.68,79.6,98.27,84.51z"/>
			</g>
			<g class="st3">
				<path class="st4" d="M65.6,79.45c17.45-2.11,32.07,0.15,32.67,5.06l-1.39-13.24c-0.59-4.91-15.22-7.17-32.67-5.06
					c-17.45,2.11-31.11,7.8-30.52,12.71l1.39,13.24C34.49,87.25,48.15,81.56,65.6,79.45z"/>
			</g>
			<g class="st3">
				<path class="st4" d="M193.98,84.51c-0.59,4.91,13.07,10.6,30.52,12.71c17.45,2.11,32.07-0.15,32.67-5.06
					c0.59-4.91-13.07-10.6-30.52-12.71C209.2,77.34,194.58,79.6,193.98,84.51z"/>
			</g>
			<g class="st3">
				<path class="st4" d="M226.65,79.45c-17.45-2.11-32.07,0.15-32.67,5.06l1.39-13.24c0.59-4.91,15.22-7.17,32.67-5.06
					c17.45,2.11,31.11,7.8,30.52,12.71l-1.39,13.24C257.76,87.25,244.1,81.56,226.65,79.45z"/>
			</g>
			<g class="st3">
				<g class="st9">
					<g>
						<path class="st1" d="M214.09,81.65c3.89,0,7.99,0.26,12.21,0.77c18.22,2.21,27.14,7.48,27.87,9.37
							c-0.77,1.08-5.86,3.22-17.1,3.22c-3.89,0-7.99-0.26-12.21-0.77c-18.22-2.21-27.14-7.48-27.87-9.37
							C197.76,83.8,202.85,81.65,214.09,81.65L214.09,81.65z M214.09,78.66c-11.41,0-19.66,2.19-20.1,5.85
							c-0.59,4.91,13.07,10.6,30.52,12.71c4.43,0.54,8.68,0.79,12.57,0.79c11.41,0,19.66-2.19,20.1-5.85
							c0.59-4.91-13.07-10.6-30.52-12.71C222.22,78.91,217.97,78.66,214.09,78.66L214.09,78.66z"/>
					</g>
				</g>
			</g>
			<g class="st3">
				<g class="st9">
					<g>
						<path class="st1" d="M78.17,81.65c11.24,0,16.33,2.15,17.1,3.22c-0.73,1.89-9.65,7.17-27.87,9.37
							c-4.21,0.51-8.32,0.77-12.21,0.77c-11.24,0-16.33-2.15-17.1-3.22c0.73-1.89,9.65-7.17,27.87-9.37
							C70.18,81.91,74.28,81.65,78.17,81.65L78.17,81.65z M78.17,78.66c-3.88,0-8.13,0.25-12.57,0.79
							c-17.45,2.11-31.11,7.8-30.52,12.71c0.44,3.66,8.69,5.85,20.1,5.85c3.88,0,8.13-0.25,12.57-0.79
							c17.45-2.11,31.11-7.8,30.52-12.71C97.83,80.85,89.58,78.66,78.17,78.66L78.17,78.66z"/>
					</g>
				</g>
			</g>
			<g class="st3">
				<path class="st10" d="M112.23,35.39c0,0-0.28-3.28-1.97-3.46c-1.68-0.19-4.02,0.28-4.96,6.46c-0.94,6.18-1.12,16.28,3.46,23.58
					c4.59,7.3,9.64,8.42,11.6,7.86c1.97-0.56-4.49-8.89-6.27-15.25C112.32,48.21,112.23,35.39,112.23,35.39z"/>
			</g>
			<g class="st3">
				<path class="st10" d="M176.05,41.84c0,0-1.59,16.94-19.09,17.03c-17.5,0.09-10.95,3.56-8.14,4.4c2.81,0.84,19.37,4.3,26.76-3.46
					c7.39-7.77,5.71-22.93,5.43-24.33C180.73,34.08,177.46,34.26,176.05,41.84z"/>
			</g>
			<g class="st3">
				<path class="st10" d="M84.89,65.85C79.22,65.2,72,65.26,64.21,66.21c-17.45,2.11-31.11,7.8-30.52,12.71l1.39,13.24
					c-0.32-2.62,3.45-5.45,9.65-7.85C54.59,75.46,72.45,69.31,84.89,65.85z"/>
			</g>
			<g class="st3">
				<path class="st11" d="M65.96,82.42c-18.22,2.21-27.14,7.48-27.87,9.37c0.77,1.08,5.86,3.22,17.1,3.22
					c0.27,0,0.55-0.01,0.82-0.01c0.77-6.01,8.15-10.35,14.63-13.03C69.09,82.09,67.54,82.23,65.96,82.42z"/>
			</g>
			<g class="st3">
				<path class="st11" d="M226.29,82.42c-4.21-0.51-8.32-0.77-12.21-0.77c-11.24,0-16.33,2.15-17.1,3.22
					c0.62,1.62,7.3,5.73,20.67,8.26c6.72-3.23,17.8-5.15,28.13-6.28C241.22,85.14,234.78,83.45,226.29,82.42z"/>
			</g>
			<g class="st3">
				<path class="st10" d="M228.04,66.21c-17.45-2.11-32.08,0.15-32.67,5.06l-1.39,13.24c0.54-4.49,12.83-6.75,28.26-5.5
					c4.65-5.26,11.52-8.61,17.8-10.67C236.37,67.46,232.33,66.73,228.04,66.21z"/>
			</g>
			<g class="st3">
				<path class="st10" d="M121.3,102.39c0,0-16.88,8.55-17.87,21.71c-0.99,13.16,2.75-5.75,22.83-12.25
					c18.86-6.1,28.26-1.42,31.26-1.23C160.52,110.82,145.91,92.66,121.3,102.39z"/>
			</g>
			<g class="st3">
				<path class="st10" d="M171.95,216.75c-13.22,3.56,17.51,6.2,26.56,0.25c8.54-5.61,7.31-38.06,5.69-43.17
					C202.58,168.71,190.03,211.89,171.95,216.75z"/>
			</g>
			<g class="st3">
				<path class="st10" d="M96.59,37.32c0,0-32.66,5.99-42.23,13.6c-9.57,7.61-8.57,7.86-4.58,8.11c3.99,0.25,20.24-0.52,31.96-9.25
					S104.6,35.67,96.59,37.32z"/>
			</g>
			<g class="st3">
				<path class="st10" d="M221.45,43.89c0,0-15.78-6.1-22.25-7.16c-6.47-1.06-3.38,7.7-3.21,12.71s15.71,5.27,25.27,5.93
					c9.56,0.66,16.23,5.02,17.28,1.54C239.59,53.43,226.91,45.92,221.45,43.89z"/>
			</g>
		</g>
		<path class="st12" d="M165.48,150.67c-5.03-5.76-12.41-9.42-20.66-9.42c-15.15,0-27.44,12.28-27.44,27.44
			c0,9.04,4.39,17.03,11.13,22.03C138.87,169.76,152.64,157.65,165.48,150.67z"/>
	</g>
</g>
<rect x="281.58" y="-0.07" class="st1" width="9" height="315"/>
<g>
	<path class="st1" d="M429.86,220.13V91.2h1.64c0.32-4.89,0.38-9.82,0.34-14.75h-36.9c0.08,4.92,0.02,9.84-0.27,14.75h1.14v128.93
		c-3.94,0.61-7.83,1.55-11.69,2.84c-3.86,1.29-7.3,2.54-10.33,3.75v8.63h78.08v-8.63c-3.03-1.51-6.47-2.8-10.33-3.86
		C437.7,221.79,433.8,220.89,429.86,220.13z"/>
	<path class="st1" d="M586.26,216.27c-1.21,2.57-3.14,5.18-5.79,7.83c-2.65,2.65-5.9,4.99-9.76,7.04
		c-3.86,2.04-8.32,3.71-13.39,4.99c-5.07,1.28-10.56,1.93-16.46,1.93c-9.38,0-17.7-1.4-24.97-4.2c-7.26-2.8-13.32-6.81-18.16-12.03
		c-4.85-5.22-8.51-11.46-11.01-18.73c-2.5-7.26-3.75-15.43-3.75-24.51c0-19.37,5.07-34.12,15.21-44.26
		c10.14-10.14,24.21-15.21,42.22-15.21c7.72,0,14.94,1.06,21.68,3.18c6.73,2.12,12.33,5.6,16.8,10.44
		c4.46,4.84,7.56,11.2,9.31,19.07c1.74,7.87,1.62,17.48-0.34,28.83h-69.69c0.15,11.96,3.21,21.49,9.19,28.6
		c5.98,7.11,14.79,10.67,26.44,10.67c4.99,0,10.18-0.76,15.55-2.27c5.37-1.51,9.57-3.48,12.6-5.9L586.26,216.27z M539.37,132.06
		c-3.01,0-5.68,0.53-8.01,1.59c-2.33,1.06-4.36,2.99-6.09,5.79c-1.73,2.8-3.12,6.58-4.17,11.35c-1.05,4.77-1.81,10.78-2.26,18.05
		h36.32c1.06-11.8,0.38-20.88-2.03-27.24C550.72,135.23,546.14,132.06,539.37,132.06z"/>
	<path class="st1" d="M667.52,235.34h-62.65v-8.63c4.99-2.43,9.99-4.25,14.98-5.47V83.26l-17.25-1.82v-8.63
		c1.96-0.91,4.69-1.82,8.17-2.72c3.48-0.91,7.22-1.7,11.24-2.38c4.01-0.68,8.02-1.28,12.03-1.82c4.01-0.53,7.6-0.94,10.78-1.25h7.72
		v156.61c4.99,1.21,9.99,3.03,14.98,5.46V235.34z"/>
	<path class="st1" d="M783.5,216.27c-1.21,2.57-3.14,5.18-5.79,7.83c-2.65,2.65-5.9,4.99-9.76,7.04c-3.86,2.04-8.32,3.71-13.39,4.99
		c-5.07,1.28-10.56,1.93-16.46,1.93c-9.38,0-17.7-1.4-24.97-4.2c-7.26-2.8-13.32-6.81-18.16-12.03
		c-4.85-5.22-8.51-11.46-11.01-18.73c-2.5-7.26-3.75-15.43-3.75-24.51c0-19.37,5.07-34.12,15.21-44.26
		c10.14-10.14,24.21-15.21,42.22-15.21c7.72,0,14.94,1.06,21.68,3.18c6.73,2.12,12.33,5.6,16.8,10.44
		c4.46,4.84,7.56,11.2,9.31,19.07c1.74,7.87,1.62,17.48-0.34,28.83h-69.69c0.15,11.96,3.21,21.49,9.19,28.6
		c5.98,7.11,14.79,10.67,26.44,10.67c4.99,0,10.18-0.76,15.55-2.27c5.37-1.51,9.57-3.48,12.6-5.9L783.5,216.27z M736.62,132.06
		c-3.01,0-5.68,0.53-8.01,1.59c-2.33,1.06-4.36,2.99-6.09,5.79c-1.73,2.8-3.12,6.58-4.17,11.35c-1.05,4.77-1.81,10.78-2.26,18.05
		h36.32c1.06-11.8,0.38-20.88-2.03-27.24C747.97,135.23,743.38,132.06,736.62,132.06z"/>
	<path class="st7" d="M867.94,64.64c6.2,0,11.76,0.57,16.68,1.7c4.92,1.14,8.66,2.23,11.24,3.29c-0.45,4.99-1.44,10.14-2.95,15.43
		c-1.51,5.3-2.88,9.69-4.09,13.17h-7.72l-9.99-21.56c-3.94,0-7.23,0.42-9.87,1.25c-2.65,0.83-4.77,2.46-6.36,4.88
		c-1.59,2.42-2.76,5.87-3.52,10.33c-0.76,4.47-1.14,10.25-1.14,17.36v11.35h24.06v14.75h-24.06v84.68
		c7.87,0.91,15.13,2.72,21.79,5.43v8.63h-69.46v-8.63c4.69-2.72,9.68-4.53,14.98-5.43V136.6H800.3v-9.1
		c5.29-3.42,11.04-5.99,17.25-7.7v-7.94c0-9.38,1.32-17.14,3.97-23.27c2.65-6.13,6.24-10.97,10.78-14.53
		c4.54-3.55,9.87-6.02,16-7.38C854.43,65.32,860.98,64.64,867.94,64.64z"/>
	<path class="st7" d="M961.58,235.34h-62.65v-8.63c2.27-1.22,4.61-2.24,7.04-3.08c2.42-0.84,5.07-1.64,7.94-2.4v-83.49l-14.98-1.83
		v-8.63c2.27-0.91,5.11-1.82,8.51-2.72c3.41-0.91,7-1.7,10.78-2.38c3.78-0.68,7.49-1.28,11.12-1.82c3.63-0.53,6.81-0.94,9.53-1.25
		h7.72v102.13c3.03,0.76,5.75,1.55,8.17,2.39c2.42,0.84,4.69,1.86,6.81,3.07V235.34z M910.51,84.62c0-5.3,1.79-9.46,5.38-12.48
		c3.59-3.03,8.22-4.54,13.91-4.54c5.68,0,10.32,1.51,13.91,4.54c3.59,3.03,5.38,7.19,5.38,12.48c0,5.15-1.79,9.23-5.38,12.26
		c-3.59,3.03-8.23,4.54-13.91,4.54c-5.69,0-10.32-1.51-13.91-4.54C912.3,93.85,910.51,89.76,910.51,84.62z"/>
</g>
<ellipse class="st1" cx="413.24" cy="80.21" rx="26.97" ry="14.73"/>
</svg>
