<?xml version="1.0" encoding="utf-8"?>
<!-- Generator: Adobe Illustrator 24.2.3, SVG Export Plug-In . SVG Version: 6.00 Build 0)  -->
<svg version="1.1" id="Layer_1" xmlns="http://www.w3.org/2000/svg" xmlns:xlink="http://www.w3.org/1999/xlink" x="0px" y="0px"
	 viewBox="0 0 1034 251" style="enable-background:new 0 0 1034 251;" xml:space="preserve">
<style type="text/css">
	.st0{fill:#EAE8E9;}
	.st1{fill:#FF63CE;}
	.st2{fill:url(#SVGID_1_);}
	.st3{display:none;}
	.st4{display:inline;fill:#991135;}
	.st5{fill:#6A1B9A;}
	.st6{fill:#F4F4F4;}
	.st7{fill:url(#SVGID_2_);}
	.st8{fill:url(#SVGID_3_);}
	.st9{fill:url(#SVGID_4_);}
	.st10{fill:url(#SVGID_5_);}
	.st11{fill:url(#SVGID_6_);}
	.st12{fill:url(#SVGID_7_);}
	.st13{fill:url(#SVGID_8_);}
	.st14{fill:url(#SVGID_9_);}
	.st15{fill:url(#SVGID_10_);}
	.st16{fill:url(#SVGID_11_);}
	.st17{fill:url(#SVGID_12_);}
	.st18{display:inline;}
	.st19{fill:#991135;}
	.st20{display:inline;fill:#989FA8;}
	.st21{display:inline;fill:#AA224C;}
	.st22{fill:#EFEFEF;}
	.st23{fill:url(#SVGID_13_);}
	.st24{fill:url(#SVGID_14_);}
	.st25{fill:url(#SVGID_15_);}
	.st26{fill:url(#SVGID_16_);}
</style>
<g id="Layer_1_1_">
	<g>
		<path class="st0" d="M369.4,181.2c-4.4-1.2-8.8-2.2-13.2-3.1V32.4h1.4c-0.4-5.5,0-11.1-0.7-16.7h-39.6c0,1,0,2-0.2,3
			c-0.3,1.6-0.6,3.2-1,4.7c0,0.1,0,0.2,0,0.4c0.3,1.1,0.4,2.2,0.4,3.4c0.4,1.6,0.4,3.2,0.2,4.8c0,0.1,0,0.2,0,0.4h1.1v145.8
			c-4.5,0.7-8.9,1.8-13.2,3.2c-4.4,1.5-8.3,2.9-11.7,4.2v9.8h88.3v-9.8C377.7,183.9,373.8,182.4,369.4,181.2z"/>
		<ellipse class="st0" cx="337.3" cy="23.7" rx="27" ry="14.7"/>
		<path class="st0" d="M533.1,173.8c-1.4,2.9-3.5,5.9-6.5,8.9s-6.7,5.6-11,8c-4.4,2.3-9.4,4.2-15.1,5.6c-5.7,1.4-11.9,2.2-18.6,2.2
			c-10.6,0-20-1.6-28.2-4.8c-8.2-3.2-15.1-7.7-20.5-13.6c-5.5-5.9-9.6-13-12.5-21.2c-2.8-8.2-4.2-17.4-4.2-27.7
			c0-21.9,5.7-38.6,17.2-50.1c11.5-11.5,27.4-17.2,47.7-17.2c8.7,0,16.9,1.2,24.5,3.6c7.6,2.4,13.9,6.3,19,11.8
			c5,5.5,8.5,12.7,10.5,21.6c2,8.9,1.8,19.8-0.4,32.6h-78.8c0.2,13.5,3.6,24.3,10.4,32.3c6.8,8.1,16.7,12.1,29.9,12.1
			c5.6,0,11.5-0.9,17.6-2.6c6.1-1.7,10.8-3.9,14.2-6.7L533.1,173.8z M480.1,78.6c-3.4,0-6.4,0.6-9.1,1.8c-2.6,1.2-4.9,3.4-6.9,6.6
			c-2,3.2-3.5,7.4-4.7,12.8s-2,12.2-2.5,20.4h41.1c1.2-13.3,0.4-23.6-2.3-30.8C492.9,82.2,487.7,78.6,480.1,78.6z"/>
		<path class="st0" d="M625,195.4h-70.8v-9.8c5.7-2.7,11.3-4.8,16.9-6.2v-156l-19.5-2.1v-9.8c2.2-1,5.3-2.1,9.2-3.1
			c3.9-1,8.2-1.9,12.7-2.7c4.5-0.8,9.1-1.5,13.6-2c4.5-0.6,8.6-1.1,12.2-1.4h8.7v177.1c5.7,1.4,11.3,3.4,16.9,6.2L625,195.4
			L625,195.4L625,195.4z"/>
		<path class="st0" d="M756.1,173.8c-1.4,2.9-3.5,5.9-6.5,8.9s-6.7,5.6-11,8c-4.4,2.3-9.4,4.2-15.1,5.6c-5.7,1.4-11.9,2.2-18.6,2.2
			c-10.6,0-20-1.6-28.2-4.8c-8.2-3.2-15.1-7.7-20.5-13.6c-5.5-5.9-9.6-13-12.5-21.2c-2.8-8.2-4.2-17.4-4.2-27.7
			c0-21.9,5.7-38.6,17.2-50.1c11.5-11.5,27.4-17.2,47.7-17.2c8.7,0,16.9,1.2,24.5,3.6c7.6,2.4,14,6.3,19,11.8
			c5,5.5,8.5,12.7,10.5,21.6c2,8.9,1.8,19.8-0.4,32.6h-78.8c0.2,13.5,3.6,24.3,10.4,32.3c6.8,8.1,16.7,12.1,29.9,12.1
			c5.7,0,11.5-0.9,17.6-2.6c6.1-1.7,10.8-3.9,14.2-6.7L756.1,173.8z M703.1,78.6c-3.4,0-6.4,0.6-9.1,1.8c-2.6,1.2-4.9,3.4-6.9,6.6
			c-2,3.2-3.5,7.4-4.7,12.8c-1.2,5.4-2,12.2-2.5,20.4H721c1.2-13.3,0.4-23.6-2.3-30.8C716,82.2,710.8,78.6,703.1,78.6z"/>
		<path class="st1" d="M851.6,2.3c7,0,13.3,0.6,18.9,1.9c5.6,1.3,9.8,2.5,12.7,3.7c-0.5,5.7-1.6,11.5-3.3,17.5
			c-1.7,6-3.2,11-4.6,14.9h-8.7l-11.3-24.4c-4.5,0-8.2,0.5-11.2,1.4s-5.4,2.8-7.2,5.5s-3.1,6.6-4,11.7s-1.3,11.6-1.3,19.6V67h27.2
			v16.7h-27.2v95.8c8.9,1,17.1,3.1,24.6,6.1v9.8h-78.5v-9.8c5.3-3.1,11-5.1,16.9-6.1V83.7h-19.5V73.4c6-3.9,12.5-6.8,19.5-8.7v-9
			c0-10.6,1.5-19.4,4.5-26.3S806.2,17,811.3,13s11.2-6.8,18.1-8.3S843.8,2.3,851.6,2.3z"/>
		<path class="st1" d="M894.5,82.9c-2.6-0.7-4.9-1.5-7.1-2.6s-4.3-2.2-6.5-3.6V67h67.5v9.5c-3.6,2.4-8.5,4.6-14.6,6.4l25.9,64.6
			l4.4,16.5h0.5l4.1-16.7l20-64.4c-5.1-1-9.8-3.1-14.1-6.2V67h49.5v9.8c-3.6,2.4-8.5,4.5-14.6,6.2l-41.8,112.4
			c-4.1,10.9-8.2,19.9-12.3,26.8c-4.1,6.9-8.2,12.4-12.3,16.6s-8.2,7-12.3,8.6c-4.1,1.6-8.2,2.7-12.3,3.2c-1.7-1.5-3.2-3.5-4.6-5.8
			s-2.6-4.8-3.6-7.4c-1-2.7-1.9-5.4-2.6-8.1c-0.7-2.7-1.1-5.3-1.3-7.7l3.3-6.2h31.3c1.5-2.4,2.9-5,4-7.7c1.1-2.7,2.4-6.9,4-12.3
			L894.5,82.9z"/>
	</g>
	<g>
		<path class="st0" d="M418.7,27.2c0,0-1.3-1.5-1.8-3.2c-0.2-0.7-0.6-1.4-1.3-1.7c-6-3.3-35.9-18.6-75.5-17.7
			c-39.6-0.9-69.5,14.4-75.5,17.7c-0.7,0.4-1.1,1-1.3,1.7c-0.4,1.8-1.8,3.2-1.8,3.2c-5.5,9.6-3.6,30.5-3.6,30.5
			c11-13.5,28.2-20.2,35.9-22.1c0.8-0.7,1.2-1.3,1.2-1.7c-0.6-3.4,4-6.8,8.7-7.8s36.4,1.1,36.4,1.1s31.8-2.1,36.4-1.1
			s9.3,4.4,8.7,7.8c-0.1,0.4,0.4,1,1.2,1.7c7.7,1.9,25,8.4,35.9,22C422.4,57.6,424.2,36.7,418.7,27.2z"/>
		<path class="st0" d="M296.8,35c-4.9,1-25.6,5.8-38.3,20.8c-0.4,0.5-0.6,1.2-0.5,1.9c0.4,1.8,1.7,5.5,5.5,9
			c0.6,0.6,1.5,0.8,2.3,0.4c5.5-2.2,28.3-11.8,36.9-20.2c0.5-0.4,0.7-1.1,0.6-1.7c-0.2-1.9-1-6.1-4.7-9.7
			C298.1,35,297.4,34.8,296.8,35z"/>
		<path class="st0" d="M383.5,35c4.8,0.9,25.6,5.8,38.4,20.9c0.4,0.5,0.6,1.1,0.4,1.7c-0.4,1.8-1.6,5.6-5.6,9.1
			c-0.6,0.5-1.4,0.7-2.2,0.4c-5.4-2.2-28.4-11.8-37-20.3c-0.4-0.4-0.6-1-0.6-1.6c0.2-1.9,1-6.2,4.7-9.8
			C382.2,35,382.9,34.8,383.5,35z"/>
	</g>
</g>
<g id="Layer_2_2_">
	
		<image style="overflow:visible;opacity:0.25;enable-background:new    ;" width="235" height="235" xlink:href="CE238F3224B06230.png"  transform="matrix(1 0 0 1 4 -13)">
	</image>
	<g>
		<g>
			<g>
				<g>
					<g>
						
							<linearGradient id="SVGID_1_" gradientUnits="userSpaceOnUse" x1="20.23" y1="147.42" x2="224.91" y2="147.42" gradientTransform="matrix(1 0 0 -1 0 252)">
							<stop  offset="3.540000e-02" style="stop-color:#9F19AB"/>
							<stop  offset="0.2438" style="stop-color:#AE25B1"/>
							<stop  offset="0.6455" style="stop-color:#D744BF"/>
							<stop  offset="1" style="stop-color:#FF63CE"/>
						</linearGradient>
						<circle class="st2" cx="122.6" cy="104.6" r="102.3"/>
						<g class="st3">
							<path class="st4" d="M206.3-11.9c-38.1-15.2-87.4-14-87.4-14s-49.3-1.1-87.4,14c0,0-26,10-24.2,32h0
								c4.6-3.8,15.5-7.3,28.6-8.9c14.1-1.7,26.4-0.6,31.1,2.5h0c0,0-2.2-21.1,51.9-20.4c54-0.7,51.9,20.4,51.9,20.4h0
								c4.7-3.1,16.9-4.2,31.1-2.5c13.1,1.6,24.1,5.1,28.6,8.9h0C232.3-2,206.3-11.9,206.3-11.9z"/>
						</g>
						<g>
							<g>
								<ellipse class="st5" cx="121.9" cy="106.3" rx="86.9" ry="86.9"/>
							</g>
						</g>
						<g>
							<g>
								<ellipse class="st6" cx="121.9" cy="106.3" rx="83.3" ry="83.3"/>
							</g>
							<g>
								<g>
									
										<linearGradient id="SVGID_2_" gradientUnits="userSpaceOnUse" x1="150.5132" y1="191.19" x2="178.6485" y2="191.19" gradientTransform="matrix(1 0 0 -1 0 252)">
										<stop  offset="0" style="stop-color:#834D9B"/>
										<stop  offset="1" style="stop-color:#A84D9B"/>
									</linearGradient>
									<path class="st7" d="M177.3,66.8c-3.3,7-11.7,10.1-18.7,6.8c-7-3.3-10.1-11.7-6.8-18.7c3.3-7,11.7-10.1,18.7-6.8
										C177.6,51.4,180.6,59.7,177.3,66.8z"/>
								</g>
								<g>
									
										<linearGradient id="SVGID_3_" gradientUnits="userSpaceOnUse" x1="116.5932" y1="207.07" x2="144.7268" y2="207.07" gradientTransform="matrix(1 0 0 -1 0 252)">
										<stop  offset="0" style="stop-color:#834D9B"/>
										<stop  offset="1" style="stop-color:#A84D9B"/>
									</linearGradient>
									<path class="st8" d="M143.4,50.9c-3.3,7-11.7,10.1-18.7,6.8c-7-3.3-10.1-11.7-6.8-18.7c3.3-7,11.7-10.1,18.7-6.8
										C143.6,35.5,146.7,43.9,143.4,50.9z"/>
								</g>
								<g>
									
										<linearGradient id="SVGID_4_" gradientUnits="userSpaceOnUse" x1="80.1332" y1="201.94" x2="108.2668" y2="201.94" gradientTransform="matrix(1 0 0 -1 0 252)">
										<stop  offset="0" style="stop-color:#834D9B"/>
										<stop  offset="1" style="stop-color:#A84D9B"/>
									</linearGradient>
									<path class="st9" d="M106.9,56c-3.3,7-11.7,10.1-18.7,6.8c-7-3.3-10.1-11.7-6.8-18.7c3.3-7,11.7-10.1,18.7-6.8
										C107.2,40.6,110.2,49,106.9,56z"/>
								</g>
								<g>
									
										<linearGradient id="SVGID_5_" gradientUnits="userSpaceOnUse" x1="54.3332" y1="177.98" x2="82.4728" y2="177.98" gradientTransform="matrix(1 0 0 -1 0 252)">
										<stop  offset="0" style="stop-color:#834D9B"/>
										<stop  offset="1" style="stop-color:#A84D9B"/>
									</linearGradient>
									<path class="st10" d="M81.1,80c-3.3,7-11.7,10.1-18.7,6.8c-7-3.3-10.1-11.7-6.8-18.7C59,61,67.3,58,74.4,61.3
										C81.4,64.6,84.4,72.9,81.1,80z"/>
								</g>
								<g>
									
										<linearGradient id="SVGID_6_" gradientUnits="userSpaceOnUse" x1="45.7132" y1="142.22" x2="73.8468" y2="142.22" gradientTransform="matrix(1 0 0 -1 0 252)">
										<stop  offset="0" style="stop-color:#834D9B"/>
										<stop  offset="1" style="stop-color:#A84D9B"/>
									</linearGradient>
									<path class="st11" d="M72.5,115.7c-3.3,7-11.7,10.1-18.7,6.8c-7-3.3-10.1-11.7-6.8-18.7c3.3-7,11.7-10.1,18.7-6.8
										C72.8,100.3,75.8,108.7,72.5,115.7z"/>
								</g>
								<g>
									
										<linearGradient id="SVGID_7_" gradientUnits="userSpaceOnUse" x1="58.0432" y1="108.63" x2="86.1785" y2="108.63" gradientTransform="matrix(1 0 0 -1 0 252)">
										<stop  offset="0" style="stop-color:#834D9B"/>
										<stop  offset="1" style="stop-color:#A84D9B"/>
									</linearGradient>
									<path class="st12" d="M84.8,149.3c-3.3,7-11.7,10.1-18.7,6.8c-7-3.3-10.1-11.7-6.8-18.7c3.3-7,11.7-10.1,18.7-6.8
										C85.1,133.9,88.1,142.3,84.8,149.3z"/>
								</g>
								<g>
									
										<linearGradient id="SVGID_8_" gradientUnits="userSpaceOnUse" x1="86.2232" y1="86.96" x2="114.3585" y2="86.96" gradientTransform="matrix(1 0 0 -1 0 252)">
										<stop  offset="0" style="stop-color:#834D9B"/>
										<stop  offset="1" style="stop-color:#A84D9B"/>
									</linearGradient>
									<path class="st13" d="M113,171c-3.3,7-11.7,10.1-18.7,6.8c-7-3.3-10.1-11.7-6.8-18.7c3.3-7,11.7-10.1,18.7-6.8
										C113.3,155.6,116.3,164,113,171z"/>
								</g>
								<g>
									
										<linearGradient id="SVGID_9_" gradientUnits="userSpaceOnUse" x1="121.2832" y1="84.25" x2="149.4168" y2="84.25" gradientTransform="matrix(1 0 0 -1 0 252)">
										<stop  offset="0" style="stop-color:#834D9B"/>
										<stop  offset="1" style="stop-color:#A84D9B"/>
									</linearGradient>
									<path class="st14" d="M148.1,173.7c-3.3,7-11.7,10.1-18.7,6.8c-7-3.3-10.1-11.7-6.8-18.7c3.3-7,11.7-10.1,18.7-6.8
										C148.3,158.3,151.4,166.7,148.1,173.7z"/>
								</g>
								<g>
									
										<linearGradient id="SVGID_10_" gradientUnits="userSpaceOnUse" x1="152.6332" y1="100.94" x2="180.7685" y2="100.94" gradientTransform="matrix(1 0 0 -1 0 252)">
										<stop  offset="0" style="stop-color:#834D9B"/>
										<stop  offset="1" style="stop-color:#A84D9B"/>
									</linearGradient>
									<path class="st15" d="M179.4,157c-3.3,7-11.7,10.1-18.7,6.8c-7-3.3-10.1-11.7-6.8-18.7c3.3-7,11.7-10.1,18.7-6.8
										C179.7,141.6,182.7,150,179.4,157z"/>
								</g>
							</g>
							<g>
								
									<linearGradient id="SVGID_11_" gradientUnits="userSpaceOnUse" x1="169.957" y1="123.6797" x2="208.84" y2="123.6797" gradientTransform="matrix(1 0 0 -1 0 252)">
									<stop  offset="3.540000e-02" style="stop-color:#9F19AB"/>
									<stop  offset="0.2438" style="stop-color:#AE25B1"/>
									<stop  offset="0.6455" style="stop-color:#D744BF"/>
									<stop  offset="1" style="stop-color:#FF63CE"/>
								</linearGradient>
								<path class="st16" d="M208.8,117.3c0,0-0.9,12.5-5.8,21.9c0,0-25,2.7-33.1-13.8c0,0-0.4-9.4,9.4-1.3
									C189.2,132,208.8,117.3,208.8,117.3z"/>
							</g>
							<g>
								
									<linearGradient id="SVGID_12_" gradientUnits="userSpaceOnUse" x1="79.24" y1="145.66" x2="164.58" y2="145.66" gradientTransform="matrix(1 0 0 -1 0 252)">
									<stop  offset="0" style="stop-color:#834D9B"/>
									<stop  offset="1" style="stop-color:#A84D9B"/>
								</linearGradient>
								<ellipse class="st17" cx="121.9" cy="106.3" rx="42.7" ry="42.7"/>
							</g>
							<g>
								<ellipse class="st0" cx="121.9" cy="106.3" rx="37.6" ry="37.6"/>
							</g>
						</g>
						<g class="st3">
							<path class="st4" d="M156.8-26c-3.5,0-6.3-1-10.9,15.9c-4.6,16.9-49.5,16.9-54,0S84.6-26,81.1-26c-3.5,0-10.4,15.4-4,29.3
								c3.7,8.1,7.4,11.3,9.9,12.6c1.8,0.9,2.9,2.9,2.9,4.9v1H119h29.2v-1c0-2,1.1-4,2.9-4.9c2.5-1.3,6.2-4.5,9.9-12.6
								C167.2-10.5,160.4-26,156.8-26z"/>
						</g>
						<g class="st3">
							<path class="st4" d="M70.5,29.7c0.6,5-13.2,10.7-30.9,12.9c-17.7,2.1-32.5-0.2-33.1-5.1c-0.6-5,13.2-10.7,30.9-12.9
								S69.9,24.7,70.5,29.7z"/>
						</g>
						<g class="st3">
							<path class="st4" d="M37.4,24.5c17.7-2.1,32.5,0.2,33.1,5.1l-1.4-13.4c-0.6-5-15.4-7.3-33.1-5.1S4.5,19,5.1,24l1.4,13.4
								C5.9,32.4,19.7,26.7,37.4,24.5z"/>
						</g>
						<g class="st3">
							<path class="st4" d="M167.4,29.7c-0.6,5,13.2,10.7,30.9,12.9s32.5-0.2,33.1-5.1c0.6-5-13.2-10.7-30.9-12.9
								S168,24.7,167.4,29.7z"/>
						</g>
						<g class="st3">
							<path class="st4" d="M200.5,24.5c-17.7-2.1-32.5,0.2-33.1,5.1l1.4-13.4c0.6-5,15.4-7.3,33.1-5.1S233.4,19,232.8,24l-1.4,13.4
								C232,32.4,218.2,26.7,200.5,24.5z"/>
						</g>
						<g class="st3">
							<g class="st18">
								<g>
									<path class="st19" d="M187.8,26.8c3.9,0,8.1,0.3,12.4,0.8c18.5,2.2,27.5,7.6,28.2,9.5c-0.8,1.1-5.9,3.3-17.3,3.3
										c-3.9,0-8.1-0.3-12.4-0.8c-18.5-2.2-27.5-7.6-28.2-9.5C171.2,29,176.4,26.8,187.8,26.8L187.8,26.8z M187.8,23.7
										c-11.6,0-19.9,2.2-20.4,5.9c-0.6,5,13.2,10.7,30.9,12.9c4.5,0.5,8.8,0.8,12.7,0.8c11.6,0,19.9-2.2,20.4-5.9
										c0.6-5-13.2-10.7-30.9-12.9C196,24,191.7,23.7,187.8,23.7L187.8,23.7z"/>
								</g>
							</g>
						</g>
						<g class="st3">
							<g class="st18">
								<g>
									<path class="st19" d="M50.1,26.8c11.4,0,16.5,2.2,17.3,3.3c-0.7,1.9-9.8,7.2-28.2,9.5c-4.3,0.5-8.4,0.8-12.4,0.8
										c-11.4,0-16.5-2.2-17.3-3.3c0.7-1.9,9.8-7.2,28.2-9.5C42,27,46.2,26.8,50.1,26.8L50.1,26.8z M50.1,23.7
										c-3.9,0-8.2,0.3-12.7,0.8C19.7,26.7,5.9,32.4,6.5,37.4c0.4,3.7,8.8,5.9,20.4,5.9c3.9,0,8.2-0.3,12.7-0.8
										c17.7-2.1,31.5-7.9,30.9-12.9C70,26,61.7,23.7,50.1,23.7L50.1,23.7z"/>
								</g>
							</g>
						</g>
						<g class="st3">
							<path class="st20" d="M84.6-20.1c0,0-0.3-3.3-2-3.5s-4.1,0.3-5,6.5S76.5-0.6,81.1,6.8c4.6,7.4,9.8,8.5,11.8,8
								c2-0.6-4.6-9-6.3-15.4C84.7-7.1,84.6-20.1,84.6-20.1z"/>
						</g>
						<g class="st3">
							<path class="st20" d="M149.3-13.5c0,0-1.6,17.1-19.3,17.2c-17.7,0.1-11.1,3.6-8.2,4.4s19.6,4.4,27.1-3.5
								c7.5-7.9,5.8-23.2,5.5-24.6C154-21.4,150.7-21.2,149.3-13.5z"/>
						</g>
						<g class="st3">
							<path class="st20" d="M56.9,10.8c-5.7-0.6-13-0.6-21,0.4C18.3,13.3,4.5,19,5.1,24l1.4,13.4c-0.3-2.7,3.5-5.5,9.8-8
								C26.3,20.5,44.3,14.3,56.9,10.8z"/>
						</g>
						<g class="st3">
							<path class="st21" d="M37.8,27.5C19.3,29.8,10.3,35.1,9.6,37c0.8,1.1,5.9,3.3,17.3,3.3c0.3,0,0.5,0,0.8,0
								c0.8-6.1,8.3-10.5,14.8-13.2C40.9,27.2,39.4,27.4,37.8,27.5z"/>
						</g>
						<g class="st3">
							<path class="st21" d="M200.1,27.5c-4.3-0.5-8.4-0.8-12.4-0.8c-11.4,0-16.5,2.2-17.3,3.3c0.6,1.6,7.4,5.8,20.9,8.4
								c6.8-3.3,18-5.2,28.5-6.4C215.2,30.3,208.7,28.6,200.1,27.5z"/>
						</g>
						<g class="st3">
							<path class="st20" d="M201.9,11.1c-17.7-2.1-32.5,0.2-33.1,5.1l-1.4,13.4c0.6-4.5,13-6.8,28.6-5.6c4.7-5.3,11.7-8.7,18-10.8
								C210.3,12.4,206.2,11.7,201.9,11.1z"/>
						</g>
						<g class="st3">
							<path class="st20" d="M93.8,47.8c0,0-17.1,8.7-18.1,22c-1,13.3,2.8-5.8,23.1-12.4c19.1-6.2,28.6-1.4,31.7-1.2
								C133.5,56.3,118.7,37.9,93.8,47.8z"/>
						</g>
						<g class="st3">
							<path class="st20" d="M145.1,163.6c-13.4,3.6,17.7,6.3,26.9,0.2c8.6-5.7,7.4-38.5,5.8-43.7
								C176.1,114.9,163.4,158.7,145.1,163.6z"/>
						</g>
						<g class="st3">
							<path class="st20" d="M68.8-18.1c0,0-33.1,6.1-42.8,13.8s-8.7,8-4.6,8.2c4,0.2,20.5-0.5,32.4-9.4S76.9-19.8,68.8-18.1z"/>
						</g>
						<g class="st3">
							<path class="st20" d="M195.2-11.5c0,0-16-6.2-22.5-7.2c-6.6-1.1-3.4,7.8-3.3,12.9s15.9,5.3,25.6,6s16.4,5.1,17.5,1.6
								C213.6-1.8,200.8-9.4,195.2-11.5z"/>
						</g>
					</g>
					<path class="st22" d="M152.6,84.9c-6.6-7.5-16.2-12.3-27-12.3c-19.8,0-35.8,16-35.8,35.8c0,11.8,5.7,22.2,14.5,28.8
						C117.9,109.9,135.9,94.1,152.6,84.9z"/>
				</g>
			</g>
		</g>
	</g>
</g>
<g>
	<linearGradient id="SVGID_13_" gradientUnits="userSpaceOnUse" x1="96.6469" y1="106.34" x2="109.4223" y2="106.34">
		<stop  offset="0" style="stop-color:#834D9B"/>
		<stop  offset="1" style="stop-color:#A84D9B"/>
	</linearGradient>
	<path class="st23" d="M101.3,114.6v-13.5h-4.7v-3.1h12.8v3.1h-4.7v13.5H101.3z"/>
	<linearGradient id="SVGID_14_" gradientUnits="userSpaceOnUse" x1="111.8891" y1="106.34" x2="122.477" y2="106.34">
		<stop  offset="0" style="stop-color:#834D9B"/>
		<stop  offset="1" style="stop-color:#A84D9B"/>
	</linearGradient>
	<path class="st24" d="M111.9,114.6V98.1h10.4v3h-7v3.6h6.3v3h-6.3v4h7.2v3H111.9z"/>
	<linearGradient id="SVGID_15_" gradientUnits="userSpaceOnUse" x1="125.246" y1="106.34" x2="135.4619" y2="106.34">
		<stop  offset="0" style="stop-color:#834D9B"/>
		<stop  offset="1" style="stop-color:#A84D9B"/>
	</linearGradient>
	<path class="st25" d="M125.2,114.6V98.1h3.5v13.5h6.7v3.1H125.2z"/>
	<linearGradient id="SVGID_16_" gradientUnits="userSpaceOnUse" x1="137.9052" y1="106.34" x2="148.4931" y2="106.34">
		<stop  offset="0" style="stop-color:#834D9B"/>
		<stop  offset="1" style="stop-color:#A84D9B"/>
	</linearGradient>
	<path class="st26" d="M137.9,114.6V98.1h10.4v3h-7v3.6h6.3v3h-6.3v4h7.2v3H137.9z"/>
</g>
</svg>
