<?xml version="1.0" encoding="utf-8"?>
<!-- Generator: Adobe Illustrator 24.2.3, SVG Export Plug-In . SVG Version: 6.00 Build 0)  -->
<svg version="1.1" id="Layer_1" xmlns="http://www.w3.org/2000/svg" xmlns:xlink="http://www.w3.org/1999/xlink" x="0px" y="0px"
	 viewBox="0 0 647 180" style="enable-background:new 0 0 647 180;" xml:space="preserve">
<style type="text/css">
	.st0{fill:#F4F7F9;}
	.st1{fill:#EA9423;}
</style>
<g>
	<path class="st0" d="M106.65,162.48V33.55h1.64c0.32-4.89,0.38-9.82,0.34-14.75h-36.9c0.08,4.92,0.02,9.84-0.27,14.75h1.14v128.93
		c-3.94,0.61-7.83,1.55-11.69,2.84c-3.86,1.29-7.3,2.54-10.33,3.75v8.63h78.08v-8.63c-3.03-1.51-6.47-2.8-10.33-3.86
		C114.48,164.15,110.59,163.24,106.65,162.48z"/>
	<path class="st0" d="M263.05,158.62c-1.21,2.57-3.14,5.18-5.79,7.83c-2.65,2.65-5.9,4.99-9.76,7.04
		c-3.86,2.04-8.32,3.71-13.39,4.99c-5.07,1.28-10.56,1.93-16.46,1.93c-9.38,0-17.7-1.4-24.97-4.2c-7.26-2.8-13.32-6.81-18.16-12.03
		c-4.85-5.22-8.51-11.46-11.01-18.73c-2.5-7.26-3.75-15.43-3.75-24.51c0-19.37,5.07-34.12,15.21-44.26
		c10.14-10.14,24.21-15.21,42.22-15.21c7.72,0,14.94,1.06,21.68,3.18c6.73,2.12,12.33,5.6,16.8,10.44
		c4.46,4.84,7.56,11.2,9.31,19.07c1.74,7.87,1.62,17.48-0.34,28.83h-69.69c0.15,11.96,3.21,21.49,9.19,28.6
		c5.98,7.11,14.79,10.67,26.44,10.67c4.99,0,10.18-0.76,15.55-2.27c5.37-1.51,9.57-3.48,12.6-5.9L263.05,158.62z M216.16,74.41
		c-3.01,0-5.68,0.53-8.01,1.59c-2.33,1.06-4.36,2.99-6.09,5.79c-1.73,2.8-3.12,6.58-4.17,11.35c-1.05,4.77-1.81,10.78-2.26,18.05
		h36.32c1.06-11.8,0.38-20.88-2.03-27.24C227.51,77.59,222.93,74.41,216.16,74.41z"/>
	<path class="st0" d="M344.31,177.69h-62.65v-8.63c4.99-2.43,9.99-4.25,14.98-5.47V25.61l-17.25-1.82v-8.63
		c1.96-0.91,4.69-1.82,8.17-2.72c3.48-0.91,7.22-1.7,11.24-2.38c4.01-0.68,8.02-1.28,12.03-1.82c4.01-0.53,7.6-0.94,10.78-1.25h7.72
		v156.61c4.99,1.21,9.99,3.03,14.98,5.46V177.69z"/>
	<path class="st0" d="M460.29,158.62c-1.21,2.57-3.14,5.18-5.79,7.83c-2.65,2.65-5.9,4.99-9.76,7.04
		c-3.86,2.04-8.32,3.71-13.39,4.99c-5.07,1.28-10.56,1.93-16.46,1.93c-9.38,0-17.7-1.4-24.97-4.2c-7.26-2.8-13.32-6.81-18.16-12.03
		c-4.85-5.22-8.51-11.46-11.01-18.73c-2.5-7.26-3.75-15.43-3.75-24.51c0-19.37,5.07-34.12,15.21-44.26
		c10.14-10.14,24.21-15.21,42.22-15.21c7.72,0,14.94,1.06,21.68,3.18c6.73,2.12,12.33,5.6,16.8,10.44
		c4.46,4.84,7.56,11.2,9.31,19.07c1.74,7.87,1.62,17.48-0.34,28.83H392.2c0.15,11.96,3.21,21.49,9.19,28.6
		c5.98,7.11,14.79,10.67,26.44,10.67c4.99,0,10.18-0.76,15.55-2.27c5.37-1.51,9.57-3.48,12.6-5.9L460.29,158.62z M413.41,74.41
		c-3.01,0-5.68,0.53-8.01,1.59c-2.33,1.06-4.36,2.99-6.09,5.79c-1.73,2.8-3.12,6.58-4.17,11.35c-1.05,4.77-1.81,10.78-2.26,18.05
		h36.32c1.06-11.8,0.38-20.88-2.03-27.24C424.76,77.59,420.17,74.41,413.41,74.41z"/>
	<path class="st1" d="M544.73,6.99c6.2,0,11.76,0.57,16.68,1.7c4.92,1.14,8.66,2.23,11.24,3.29c-0.45,4.99-1.44,10.14-2.95,15.43
		c-1.51,5.3-2.88,9.69-4.09,13.17h-7.72l-9.99-21.56c-3.94,0-7.23,0.42-9.87,1.25c-2.65,0.83-4.77,2.46-6.36,4.88
		c-1.59,2.42-2.76,5.87-3.52,10.33c-0.76,4.47-1.14,10.25-1.14,17.36V64.2h24.06v14.75h-24.06v84.68
		c7.87,0.91,15.13,2.72,21.79,5.43v8.63h-69.46v-8.63c4.69-2.72,9.68-4.53,14.98-5.43V78.95h-17.25v-9.1
		c5.29-3.42,11.04-5.99,17.25-7.7v-7.94c0-9.38,1.32-17.14,3.97-23.27c2.65-6.13,6.24-10.97,10.78-14.53
		c4.54-3.55,9.87-6.02,16-7.38C531.22,7.68,537.77,6.99,544.73,6.99z"/>
	<path class="st1" d="M638.37,177.69h-62.65v-8.63c2.27-1.22,4.61-2.24,7.04-3.08c2.42-0.84,5.07-1.64,7.94-2.4V80.09l-14.98-1.83
		v-8.63c2.27-0.91,5.11-1.82,8.51-2.72c3.41-0.91,7-1.7,10.78-2.38c3.78-0.68,7.49-1.28,11.12-1.82c3.63-0.53,6.81-0.94,9.53-1.25
		h7.72v102.13c3.03,0.76,5.75,1.55,8.17,2.39c2.42,0.84,4.69,1.86,6.81,3.07V177.69z M587.3,26.97c0-5.3,1.79-9.46,5.38-12.48
		c3.59-3.03,8.22-4.54,13.91-4.54c5.68,0,10.32,1.51,13.91,4.54c3.59,3.03,5.38,7.19,5.38,12.48c0,5.15-1.79,9.23-5.38,12.26
		c-3.59,3.03-8.23,4.54-13.91,4.54c-5.69,0-10.32-1.51-13.91-4.54C589.09,36.2,587.3,32.12,587.3,26.97z"/>
</g>
<ellipse class="st0" cx="90.03" cy="22.56" rx="26.97" ry="14.73"/>
<g>
	<path class="st0" d="M168.45,30c0,0-1.32-1.45-1.76-3.24c-0.18-0.73-0.6-1.37-1.26-1.74c-6.03-3.33-35.9-18.58-75.51-17.71
		C50.29,6.45,20.43,21.7,14.4,25.03c-0.66,0.36-1.08,1.01-1.26,1.74C12.7,28.55,11.37,30,11.37,30c-5.5,9.56-3.62,30.52-3.62,30.52
		C18.7,47,35.94,40.33,43.66,38.45c0.79-0.73,1.23-1.32,1.16-1.7c-0.64-3.39,4.02-6.77,8.68-7.83C58.16,27.86,89.91,30,89.91,30
		s31.75-2.15,36.41-1.09c4.66,1.06,9.31,4.45,8.68,7.83c-0.07,0.38,0.37,0.97,1.16,1.7c7.72,1.88,24.99,8.43,35.93,21.95
		C172.09,60.4,173.95,39.56,168.45,30z"/>
	<path class="st0" d="M46.49,37.82c-4.93,0.97-25.58,5.8-38.29,20.8c-0.44,0.53-0.6,1.23-0.45,1.9c0.41,1.8,1.68,5.48,5.5,8.96
		c0.63,0.57,1.52,0.75,2.3,0.43c5.53-2.24,28.29-11.76,36.86-20.19c0.45-0.44,0.67-1.07,0.61-1.7c-0.18-1.9-1-6.1-4.66-9.68
		C47.88,37.87,47.17,37.69,46.49,37.82z"/>
	<path class="st0" d="M133.26,37.81c4.8,0.94,25.64,5.75,38.4,20.87c0.4,0.48,0.57,1.12,0.43,1.73c-0.38,1.76-1.64,5.56-5.59,9.14
		c-0.59,0.53-1.42,0.71-2.16,0.41c-5.39-2.18-28.4-11.79-36.98-20.26c-0.42-0.42-0.63-1-0.57-1.6c0.17-1.88,0.97-6.16,4.71-9.79
		C131.96,37.86,132.63,37.68,133.26,37.81z"/>
</g>
</svg>
